<?xml version="1.0" standalone="no"?><!DOCTYPE svg PUBLIC "-//W3C//DTD SVG 1.1//EN" "http://www.w3.org/Graphics/SVG/1.1/DTD/svg11.dtd"><svg t="1776742548265" class="icon" viewBox="0 0 1024 1024" version="1.1" xmlns="http://www.w3.org/2000/svg" p-id="1688" xmlns:xlink="http://www.w3.org/1999/xlink" width="200" height="200"><path d="M682.688 624.128h243.84a39.04 39.04 0 0 0 38.976-39.04V97.6a39.04 39.04 0 0 0-39.04-39.04H438.848a39.04 39.04 0 0 0-39.04 39.04v243.84h185.344c53.824 0 97.536 43.648 97.536 97.472v185.28z m-58.56 58.56H438.848a97.536 97.536 0 0 1-97.536-97.536V399.872h-243.84a39.04 39.04 0 0 0-38.976 39.04v487.552c0 21.568 17.472 39.04 39.04 39.04h487.616a39.04 39.04 0 0 0 39.04-39.04v-243.84zM341.312 341.312v-243.84C341.312 43.776 385.024 0 438.848 0h487.68C980.224 0 1024 43.648 1024 97.536v487.616c0 53.824-43.648 97.536-97.536 97.536h-243.84v243.84c0 53.76-43.648 97.472-97.472 97.472h-487.68A97.536 97.536 0 0 1 0 926.464V438.848c0-53.824 43.648-97.536 97.536-97.536h243.84z" fill="#666666" p-id="1689"></path></svg>